<?xml version="1.0" encoding="utf-8"?>
<!-- Generator: Adobe Illustrator 28.0.0, SVG Export Plug-In . SVG Version: 6.00 Build 0)  -->
<svg version="1.1" id="Capa_1" xmlns="http://www.w3.org/2000/svg" xmlns:xlink="http://www.w3.org/1999/xlink" x="0px" y="0px"
	 viewBox="0 0 36 32" style="enable-background:new 0 0 36 32;" xml:space="preserve">
<style type="text/css">
	.st0{fill:#FFFFFF;}
</style>
<path class="st0" d="M0,1.5C0,0.7,0.7,0,1.5,0h2.8c1.4,0,2.6,0.8,3.2,2h25.7c1.6,0,2.8,1.6,2.4,3.2L33,14.7c-0.5,2-2.3,3.3-4.3,3.3
	h-18l0.3,1.8c0.1,0.7,0.8,1.2,1.5,1.2h18c0.8,0,1.5,0.7,1.5,1.5S31.3,24,30.5,24h-18c-2.2,0-4-1.5-4.4-3.7L4.8,3.4
	C4.8,3.2,4.6,3,4.3,3H1.5C0.7,3,0,2.3,0,1.5z M8,29c0-1.7,1.3-3,3-3s3,1.3,3,3s-1.3,3-3,3S8,30.7,8,29L8,29z M29,26c1.7,0,3,1.3,3,3
	s-1.3,3-3,3l0,0c-1.7,0-3-1.3-3-3S27.3,26,29,26z"/>
</svg>
